{"title":"The.Angry.Birds.Movie.2016.TC.Unmarked.XVID.AC3.HQ.Hive-CM8","uid":14702883,"size":1653370017,"categoryP":"video","categoryS":"movies","magnet":"?xt=urn:btih:03fadbe2298aa4105e534f5ae215dcf4a465fc96&amp;dn=The.Angry.Birds.Movie.2016.TC.Unmarked.XVID.AC3.HQ.Hive-CM8&amp;tr=udp%3A%2F%2Ftracker.leechers-paradise.org%3A6969&amp;tr=udp%3A%2F%2Fzer0day.ch%3A1337&amp;tr=udp%3A%2F%2Fopen.demonii.com%3A1337&amp;tr=udp%3A%2F%2Ftracker.coppersurfer.tk%3A6969&amp;tr=udp%3A%2F%2Fexodus.desync.com%3A6969","seeders":51,"leechers":22,"uploader":"xxxlavalxxx","files":4,"time":1464326623,"description":"http://extraimago.com/image/azCN\r\n \nhttp://www.imdb.com/title/tt1985949/\r\n\r\n\r\nFind out why the birds are so angry. When an island populated by happy, flightless birds is visited by mysterious green piggies, it's up to three unlikely outcasts - Red, Chuck and Bomb - to figure out what the pigs are up to.\r\n\r\nDirectors: Clay Kaytis, Fergal Reilly\r\nWriters: John Cohen (story by), Mikael Hed (story by)\r\nStars: Jason Sudeikis, Josh Gad, Danny McBride\r\nGenres: Animation | Action | Comedy | Family\r\nCountry: USA | Finland\r\nLanguage: English\r\n\r\n\r\nThe.Angry.Birds.Movie.2016.TC.Unmarked.Masteredition.XVID.AC3.HQ.Hive-CM8\r\n\r\nThx Hive\r\n\r\nCM8 Doing It Right The First Time \r\n\r\nSources:\r\n\r\nVideo: Unmarked 720p Chinese Telecine \r\nAudio: Direct Line  (CPG/Exclusive)\r\nthx\r\n\r\n\r\nNotes:\r\nAnother special Encode and first on the net completely unmarked,\r\ntried to get a source file that doesnt have watermarkings, took me a day longer to get, but the result is excellent,\r\nits a masterpiece from this source. Have done 720p and avi for this,looks and sounds perfect a real cinemafeeling.\r\nQuality is tested and optimized to look perfect on a 85&quot; 4K TV.\r\n\r\n\r\nEncode:\r\nThe Chinese telecine needed some work,added brightness,contrast,and fixed colours.\r\nNothing is cut from the movie\r\n\r\nLine Audio as usually from cpg, was great, fixed Monosourround to stereo,added some depth and bass, sounds very nice now\r\nlipsynced to my video\r\n\r\ngot very nice and will do me till retail\r\nenjoy\r\n\r\nPS: waiting for better vid for xmen,portuguese is bad,russian is good but too dark, both incomplete too,not sure yet\r\n    perhaps the chinese come through, lets wait and see\r\n\r\nVideo: 720x400 @bitrate 2000 2pass\r\nAudio: Line AC3 2.0 Stereo\r\nSample: yes included\r\n\r\n \nhttp://www.imdb.com/title/tt1985949/\r\n\r\n\r\nGeneral\r\nComplete name                  : The.Angry.Birds.Movie.2016.TC.Unmarked.Masteredition.XVID.AC3.HQ.Hive-CM8.avi\r\nFormat                         : AVI\r\nFormat/Info                    : Audio Video Interleave\r\nFile size                      : 1.52 GiB\r\nDuration                       : 1h 36mn\r\nOverall bit rate               : 2 261 Kbps\r\nWriting application            : Nandub v1.0rc2\r\nWriting library                : Nandub build 1853/release\r\n\r\nVideo\r\nID                             : 0\r\nFormat                         : MPEG-4 Visual\r\nFormat profile                 : Advanced   \r\nFormat settings, BVOP          : 2\r\nFormat settings, QPel          : Yes\r\nFormat settings, GMC           : No warppoints\r\nFormat settings, Matrix        : Default (H.263)\r\nMuxing mode                    : Packed bitstream\r\nCodec ID                       : XVID\r\nCodec ID/Hint                  : XviD\r\nDuration                       : 1h 36mn\r\nBit rate                       : 1 993 Kbps\r\nWidth                          : 720 pixels\r\nHeight                         : 400 pixels\r\nDisplay aspect ratio           : 16:9\r\nFrame rate                     : 29.970 fps\r\nColor space                    : YUV\r\nChroma subsampling             : 4:2:0\r\nBit depth                      : 8 bits\r\nScan type                      : Progressive\r\nCompression mode               : Lossy\r\nBits/(Pixel*Frame)             : 0.231\r\nStream size                    : 1.34 GiB (88%)\r\nWriting library                : XviD 1.2.1 (UTC 2008-12-04)\r\n\r\nAudio\r\nID                             : 1\r\nFormat                         : AC-3\r\nFormat/Info                    : Audio Coding 3\r\nMode extension                 : CM (complete main)\r\nFormat settings, Endianness    : Big\r\nCodec ID                       : 2000\r\nDuration                       : 1h 36mn\r\nBit rate mode                  : Constant\r\nBit rate                       : 256 Kbps\r\nChannel(s)                     : 2 channels\r\nChannel positions              : Front: L R\r\nSampling rate                  : 48.0 KHz\r\nBit depth                      : 16 bits\r\nCompression mode               : Lossy\r\nStream size                    : 177 MiB (11%)\r\nAlignment                      : Split accross interleaves\r\nInterleave, duration           : 33 ms (1.00 video frame)\r\nInterleave, preload duration   : 500 ms\r\n\r\n \nhttp://extraimago.com/image/a0B1 \nhttp://extraimago.com/image/a0BE \nhttp://extraimago.com/image/a0BO \nhttp://extraimago.com/image/a0BS \nhttp://extraimago.com/image/a0Bq \nhttp://extraimago.com/image/a0By","torrent":{"xt":"urn:btih:03fadbe2298aa4105e534f5ae215dcf4a465fc96","amp;dn":"The.Angry.Birds.Movie.2016.TC.Unmarked.XVID.AC3.HQ.Hive-CM8","amp;tr":["udp%3A%2F%2Ftracker.leechers-paradise.org%3A6969","udp%3A%2F%2Fzer0day.ch%3A1337","udp%3A%2F%2Fopen.demonii.com%3A1337","udp%3A%2F%2Ftracker.coppersurfer.tk%3A6969","udp%3A%2F%2Fexodus.desync.com%3A6969"],"infoHash":"03fadbe2298aa4105e534f5ae215dcf4a465fc96","infoHashBuffer":{"type":"Buffer","data":[3,250,219,226,41,138,164,16,94,83,79,90,226,21,220,244,164,101,252,150]},"announce":[],"urlList":[]}}